<?xml version="1.0" encoding="utf-8"?>
<!-- Generator: Adobe Illustrator 28.0.0, SVG Export Plug-In . SVG Version: 6.00 Build 0)  -->
<svg version="1.1" id="icon" xmlns="http://www.w3.org/2000/svg" xmlns:xlink="http://www.w3.org/1999/xlink" x="0px" y="0px"
	 viewBox="0 0 32 32" style="enable-background:new 0 0 32 32;" xml:space="preserve">
<style type="text/css">
	.st0{fill:none;}
	.st1{fill:#FFFFFF;}
	.st2{font-family:'AGaramondPro-Regular';}
	.st3{font-size:18px;}
</style>
<path d="M16,2C9.9,2,5,6.9,5,13c0,2.4,0.8,4.7,2.2,6.6c0,0,0.3,0.4,0.3,0.5L16,30l8.4-10c0-0.1,0.3-0.4,0.3-0.4l0,0
	c1.4-1.9,2.2-4.2,2.2-6.6C27,6.9,22.1,2,16,2z M16,9c-2.2,0-4,0-4,0S13.8,9,16,9c2.2,0,4,0,4,0C20,9,18.2,9,16,9z"/>
<rect id="_Transparent_Rectangle_" class="st0" width="32" height="32"/>
<text transform="matrix(1 0 0 1 11.3272 19.5711)" class="st1 st2 st3">1</text>
</svg>
